#N canvas 2464 79 740 721 10;
#X obj 237 567 sendOSC;
#X floatatom 237 594 5 0 0 0 - - -;
#X floatatom 291 596 5 0 0 0 - - -;
#X text 292 610 bundleDepth;
#X msg 33 599 disconnect;
#X obj 256 119 bng 40 250 50 0 empty empty empty 8 -8 0 10 -262144
-1 -1;
#X text 255 96 /red 0;
#X obj 307 118 bng 40 250 50 0 empty empty empty 8 -8 0 10 -262144
-1 -1;
#X text 312 95 /red 1;
#X msg 31 583 connect 127.0.0.1 8000;
#X obj 80 483 nbx 5 14 0 255 0 0 \$0-A \$0-B empty 0 -8 1 10 -262144
-1 -1 0 256;
#X obj 80 412 knob 60 60 0 127 0 0 empty empty empty 0 -8 0 8 -262144
-1 -1 0 1;
#X obj 213 484 nbx 5 14 0 255 0 0 \$0-A \$0-B empty 0 -8 1 10 -262144
-1 -1 0 256;
#X obj 213 410 knob 60 60 0 127 0 0 empty empty empty 0 -8 0 8 -262144
-1 -1 0 1;
#N canvas 0 22 450 278 (subpatch) 0;
#X coords 0 1 100 -1 100 30 1 0 0;
#X restore 303 -59 graph;
#X obj 339 484 nbx 5 14 0 255 0 0 \$0-A \$0-B empty 0 -8 1 10 -262144
-1 -1 0 256;
#X obj 339 411 knob 60 60 0 127 0 0 empty empty empty 0 -8 0 8 -262144
-1 -1 0 0;
#X obj 374 117 bng 40 250 50 0 empty empty empty 8 -8 0 10 -262144
-1 -1;
#X obj 423 117 bng 40 250 50 0 empty empty empty 8 -8 0 10 -262144
-1 -1;
#X obj 495 117 bng 40 250 50 0 empty empty empty 8 -8 0 10 -262144
-1 -1;
#X obj 542 117 bng 40 250 50 0 empty empty empty 8 -8 0 10 -262144
-1 -1;
#X text 367 94 /green 0;
#X text 417 94 /green 1;
#X text 490 94 /blue 0;
#X text 545 93 /blue 1;
#X msg 373 182 send /green \$1;
#X msg 495 183 send /blue \$1;
#X msg 257 185 send /red \$1;
#X msg 258 163 0;
#X msg 306 162 1;
#X msg 375 160 0;
#X msg 423 159 1;
#X msg 496 161 0;
#X msg 544 160 1;
#X msg 82 501 send /cc/29 \$1;
#X msg 212 501 send /cc/30 \$1;
#X msg 337 501 send /cc/31 \$1;
#X obj 357 315 nbx 5 14 0 255 0 0 \$0-A \$0-B empty 0 -8 1 10 -262144
-1 -1 0 256;
#X obj 357 238 knob 60 60 0 1 0 0 empty empty empty 0 -8 0 8 -262144
-1 -1 0 1;
#X obj 623 313 nbx 5 14 0 255 0 0 \$0-A \$0-B empty 0 -8 1 10 -262144
-1 -1 0 256;
#X obj 623 239 knob 60 60 -1 1 0 0 empty empty empty 0 -8 0 8 -262144
-1 -1 0 0;
#X obj 233 316 nbx 5 14 0 255 0 0 \$0-A \$0-B empty 0 -8 1 10 -262144
-1 -1 0 256;
#X obj 233 242 knob 60 60 0 1 0 0 empty empty empty 0 -8 0 8 -262144
-1 -1 0 0;
#X obj 19 318 nbx 5 14 0 255 0 0 \$0-A \$0-B empty 0 -8 1 10 -262144
-1 -1 0.101695 256;
#X obj 19 244 knob 60 60 0 1 0 0 empty empty empty 0 -8 0 8 -262144
-1 -1 600 1;
#X obj 499 313 nbx 5 14 0 255 0 0 \$0-A \$0-B empty 0 -8 1 10 -262144
-1 -1 0.491525 256;
#X obj 500 239 knob 60 60 -1 1 0 0 empty empty empty 0 -8 0 8 -262144
-1 -1 4400 0;
#X text 402 455 Z;
#X text 271 457 Y;
#X text 143 456 X;
#X msg 356 332 send /cc/6 \$1;
#X text 422 287 Y;
#X obj 492 12 bng 15 250 50 0 empty empty empty 17 7 0 10 -262144 -1
-1;
#X msg 492 28 0;
#X obj 520 11 bng 15 250 50 0 empty empty empty 17 7 0 10 -262144 -1
-1;
#X obj 550 11 bng 15 250 50 0 empty empty empty 17 7 0 10 -262144 -1
-1;
#X obj 579 11 bng 15 250 50 0 empty empty empty 17 7 0 10 -262144 -1
-1;
#X obj 606 11 bng 15 250 50 0 empty empty empty 17 7 0 10 -262144 -1
-1;
#X msg 520 27 1;
#X msg 550 27 2;
#X msg 579 27 3;
#X msg 606 27 4;
#X obj 631 11 bng 15 250 50 0 empty empty empty 17 7 0 10 -262144 -1
-1;
#X msg 631 27 5;
#X obj 614 130 bng 15 250 50 0 empty empty empty 17 7 0 10 -262144
-1 -1;
#X obj 663 129 bng 15 250 50 0 empty empty empty 17 7 0 10 -262144
-1 -1;
#X msg 493 44 send /noteon \$1 127;
#X obj 655 11 bng 15 250 50 0 empty empty empty 17 7 0 10 -262144 -1
-1;
#X obj 682 11 bng 15 250 50 0 empty empty empty 17 7 0 10 -262144 -1
-1;
#X msg 655 27 6;
#X msg 682 27 7;
#X msg 614 163 send /noteon \$1;
#X text 662 110 rgb;
#X text 600 110 rainbow;
#X obj 255 14 bng 15 250 50 0 empty empty empty 17 7 0 10 -262144 -1
-1;
#X text 258 -4 0;
#X obj 283 13 bng 15 250 50 0 empty empty empty 17 7 0 10 -262144 -1
-1;
#X obj 313 13 bng 15 250 50 0 empty empty empty 17 7 0 10 -262144 -1
-1;
#X obj 342 13 bng 15 250 50 0 empty empty empty 17 7 0 10 -262144 -1
-1;
#X obj 369 13 bng 15 250 50 0 empty empty empty 17 7 0 10 -262144 -1
-1;
#X text 286 -4 1;
#X text 372 -4 4;
#X obj 394 13 bng 15 250 50 0 empty empty empty 17 7 0 10 -262144 -1
-1;
#X text 315 -4 2;
#X text 344 -4 3;
#X msg 255 48 send /noteon \$1 127;
#X obj 418 13 bng 15 250 50 0 empty empty empty 17 7 0 10 -262144 -1
-1;
#X obj 445 13 bng 15 250 50 0 empty empty empty 17 7 0 10 -262144 -1
-1;
#X text 396 -4 5;
#X text 420 -5 6;
#X text 445 -4 7;
#X text 337 -18 Sets;
#X msg 255 30 8;
#X msg 283 29 9;
#X msg 313 29 10;
#X msg 342 29 11;
#X msg 369 29 12;
#X msg 394 29 13;
#X msg 418 29 14;
#X msg 445 29 15;
#X obj 18 128 bng 15 250 50 0 empty empty empty 17 7 0 10 -262144 -1
-1;
#X text 495 -8 0;
#X obj 46 127 bng 15 250 50 0 empty empty empty 17 7 0 10 -262144 -1
-1;
#X obj 76 127 bng 15 250 50 0 empty empty empty 17 7 0 10 -262144 -1
-1;
#X obj 105 127 bng 15 250 50 0 empty empty empty 17 7 0 10 -262144
-1 -1;
#X obj 132 127 bng 15 250 50 0 empty empty empty 17 7 0 10 -262144
-1 -1;
#X text 523 -8 1;
#X text 609 -8 4;
#X obj 157 127 bng 15 250 50 0 empty empty empty 17 7 0 10 -262144
-1 -1;
#X text 552 -8 2;
#X text 581 -8 3;
#X msg 18 162 send /noteon \$1 127;
#X obj 181 127 bng 15 250 50 0 empty empty empty 17 7 0 10 -262144
-1 -1;
#X obj 208 127 bng 15 250 50 0 empty empty empty 17 7 0 10 -262144
-1 -1;
#X text 633 -8 5;
#X text 657 -9 6;
#X text 682 -8 7;
#X msg 18 144 16;
#X msg 46 143 17;
#X msg 76 143 18;
#X msg 105 143 19;
#X msg 132 143 20;
#X msg 157 143 21;
#X msg 181 143 22;
#X text 572 -23 Curves;
#X msg 613 145 57;
#X msg 662 145 58;
#X msg 208 143 23;
#X msg 29 558 connect 10.255.255.84 8001;
#X obj 235 551 r oscout;
#X obj 216 517 s oscout;
#X obj 233 362 s oscout;
#X text 375 354 X;
#X obj 357 349 s oscout;
#X text 517 353 X;
#X obj 499 348 s oscout;
#X text 640 352 X;
#X obj 622 347 s oscout;
#X obj 19 178 s oscout;
#X obj 258 66 s oscout;
#X text 288 291 X;
#X obj 493 61 s oscout;
#X text 46 627 X;
#X obj 28 622 s oscout;
#X obj 19 352 s oscout;
#X text 238 391 Rotation;
#X text 624 94 Colors;
#X obj 615 180 s oscout;
#X obj 616 483 nbx 5 14 0 255 0 0 \$0-A \$0-B empty 0 -8 1 10 -262144
-1 -1 0 256;
#X obj 616 409 knob 60 60 -1 1 0 0 empty empty empty 0 -8 0 8 -257985
-1 -1 900 0;
#X obj 492 483 nbx 5 14 0 255 0 0 \$0-A \$0-B empty 0 -8 1 10 -262144
-1 -1 0 256;
#X obj 491 412 knob 60 60 -1 1 0 0 empty empty empty 0 -8 0 8 -262144
-1 -1 1900 0;
#X text 510 523 X;
#X obj 492 518 s oscout;
#X text 633 522 X;
#X obj 615 517 s oscout;
#X text 23 110 0;
#X text 50 109 1;
#X text 79 109 2;
#X text 108 109 3;
#X text 136 109 4;
#X text 160 109 5;
#X text 183 108 6;
#X text 209 109 7;
#X obj 16 15 bng 15 250 50 0 empty empty empty 17 7 0 10 -262144 -1
-1;
#X text 19 -3 0;
#X obj 44 14 bng 15 250 50 0 empty empty empty 17 7 0 10 -262144 -1
-1;
#X obj 74 14 bng 15 250 50 0 empty empty empty 17 7 0 10 -262144 -1
-1;
#X obj 103 14 bng 15 250 50 0 empty empty empty 17 7 0 10 -262144 -1
-1;
#X obj 130 14 bng 15 250 50 0 empty empty empty 17 7 0 10 -262144 -1
-1;
#X text 47 -3 1;
#X text 133 -3 4;
#X obj 155 14 bng 15 250 50 0 empty empty empty 17 7 0 10 -262144 -1
-1;
#X text 76 -3 2;
#X text 105 -3 3;
#X msg 16 49 send /noteon \$1 127;
#X obj 179 14 bng 15 250 50 0 empty empty empty 17 7 0 10 -262144 -1
-1;
#X obj 206 14 bng 15 250 50 0 empty empty empty 17 7 0 10 -262144 -1
-1;
#X text 157 -3 5;
#X text 181 -4 6;
#X text 206 -3 7;
#X obj 19 67 s oscout;
#X text 105 -15 Simu PL;
#X msg 15 31 24;
#X msg 44 30 25;
#X msg 74 30 26;
#X msg 103 30 27;
#X msg 130 30 28;
#X msg 155 30 29;
#X msg 179 31 30;
#X msg 206 30 31;
#X text 69 94 Destination Laser;
#X text 531 86;
#X text 312 -53 OSC Dac GUI;
#X text 512 212 Top Left;
#X text 619 212 Top Right;
#X text 564 215;
#X text 557 382;
#X text 489 378 Bottom Left;
#X text 615 384 Bottom Right;
#X text 561 279;
#X text 682 283;
#X text 675 453;
#X text 554 449;
#X text 32 217 SIZE;
#X msg 498 330 send /geom/tl \$1;
#X msg 621 330 send /geom/tr \$1;
#X msg 491 500 send /geom/bl \$1;
#X msg 614 500 send /geom/br \$1;
#X msg 18 336 send /geom/size \$1;
#X text 248 218 Offset X;
#X text 363 215 Offset Y;
#X msg 233 336 send /cc/5 \$1 \$2;
#X msg 27 539 connect 192.168.1.5 7654;
#X connect 0 0 1 0;
#X connect 0 1 2 0;
#X connect 4 0 143 0;
#X connect 5 0 28 0;
#X connect 7 0 29 0;
#X connect 9 0 143 0;
#X connect 10 0 34 0;
#X connect 11 0 10 0;
#X connect 12 0 35 0;
#X connect 13 0 12 0;
#X connect 15 0 36 0;
#X connect 16 0 15 0;
#X connect 17 0 30 0;
#X connect 18 0 31 0;
#X connect 19 0 32 0;
#X connect 20 0 33 0;
#X connect 28 0 27 0;
#X connect 29 0 27 0;
#X connect 30 0 25 0;
#X connect 31 0 25 0;
#X connect 32 0 26 0;
#X connect 33 0 26 0;
#X connect 34 0 130 0;
#X connect 35 0 130 0;
#X connect 36 0 130 0;
#X connect 37 0 50 0;
#X connect 38 0 37 0;
#X connect 39 0 206 0;
#X connect 40 0 39 0;
#X connect 41 0 212 0;
#X connect 42 0 41 0;
#X connect 43 0 209 0;
#X connect 44 0 43 0;
#X connect 45 0 205 0;
#X connect 46 0 45 0;
#X connect 50 0 133 0;
#X connect 52 0 53 0;
#X connect 53 0 66 0;
#X connect 54 0 58 0;
#X connect 55 0 59 0;
#X connect 56 0 60 0;
#X connect 57 0 61 0;
#X connect 58 0 66 0;
#X connect 59 0 66 0;
#X connect 60 0 66 0;
#X connect 61 0 66 0;
#X connect 62 0 63 0;
#X connect 63 0 66 0;
#X connect 64 0 125 0;
#X connect 65 0 126 0;
#X connect 66 0 141 0;
#X connect 67 0 69 0;
#X connect 68 0 70 0;
#X connect 69 0 66 0;
#X connect 70 0 66 0;
#X connect 71 0 147 0;
#X connect 74 0 92 0;
#X connect 76 0 93 0;
#X connect 77 0 94 0;
#X connect 78 0 95 0;
#X connect 79 0 96 0;
#X connect 82 0 97 0;
#X connect 85 0 139 0;
#X connect 86 0 98 0;
#X connect 87 0 99 0;
#X connect 92 0 85 0;
#X connect 93 0 85 0;
#X connect 94 0 85 0;
#X connect 95 0 85 0;
#X connect 96 0 85 0;
#X connect 97 0 85 0;
#X connect 98 0 85 0;
#X connect 99 0 85 0;
#X connect 100 0 117 0;
#X connect 102 0 118 0;
#X connect 103 0 119 0;
#X connect 104 0 120 0;
#X connect 105 0 121 0;
#X connect 108 0 122 0;
#X connect 111 0 138 0;
#X connect 112 0 123 0;
#X connect 113 0 127 0;
#X connect 117 0 111 0;
#X connect 118 0 111 0;
#X connect 119 0 111 0;
#X connect 120 0 111 0;
#X connect 121 0 111 0;
#X connect 122 0 111 0;
#X connect 123 0 111 0;
#X connect 125 0 71 0;
#X connect 126 0 71 0;
#X connect 127 0 111 0;
#X connect 128 0 143 0;
#X connect 129 0 0 0;
#X connect 148 0 208 0;
#X connect 149 0 148 0;
#X connect 150 0 207 0;
#X connect 151 0 150 0;
#X connect 164 0 183 0;
#X connect 166 0 184 0;
#X connect 167 0 185 0;
#X connect 168 0 186 0;
#X connect 169 0 187 0;
#X connect 172 0 188 0;
#X connect 175 0 181 0;
#X connect 176 0 189 0;
#X connect 177 0 190 0;
#X connect 183 0 175 0;
#X connect 184 0 175 0;
#X connect 185 0 175 0;
#X connect 186 0 175 0;
#X connect 187 0 175 0;
#X connect 188 0 175 0;
#X connect 189 0 175 0;
#X connect 190 0 175 0;
#X connect 205 0 135 0;
#X connect 206 0 137 0;
#X connect 207 0 153 0;
#X connect 208 0 155 0;
#X connect 209 0 144 0;
#X connect 212 0 131 0;
#X connect 213 0 143 0;
