#N canvas 2135 170 740 721 10;
#X obj 237 567 sendOSC;
#X floatatom 237 594 5 0 0 0 - - -;
#X floatatom 291 596 5 0 0 0 - - -;
#X text 292 610 bundleDepth;
#X msg 33 599 disconnect;
#N canvas 0 22 450 278 (subpatch) 0;
#X coords 0 1 100 -1 100 30 1 0 0;
#X restore 303 -59 graph;
#X obj 492 89 bng 15 250 50 0 empty empty empty 17 7 0 10 -262144 -1
-1;
#X msg 492 105 0;
#X obj 520 88 bng 15 250 50 0 empty empty empty 17 7 0 10 -262144 -1
-1;
#X obj 550 88 bng 15 250 50 0 empty empty empty 17 7 0 10 -262144 -1
-1;
#X obj 579 88 bng 15 250 50 0 empty empty empty 17 7 0 10 -262144 -1
-1;
#X obj 606 88 bng 15 250 50 0 empty empty empty 17 7 0 10 -262144 -1
-1;
#X msg 520 104 1;
#X msg 550 104 2;
#X msg 579 104 3;
#X msg 606 104 4;
#X obj 631 88 bng 15 250 50 0 empty empty empty 17 7 0 10 -262144 -1
-1;
#X msg 631 104 5;
#X msg 493 121 send /noteon \$1 127;
#X obj 655 88 bng 15 250 50 0 empty empty empty 17 7 0 10 -262144 -1
-1;
#X obj 682 88 bng 15 250 50 0 empty empty empty 17 7 0 10 -262144 -1
-1;
#X msg 655 104 6;
#X msg 682 104 7;
#X obj 255 91 bng 15 250 50 0 empty empty empty 17 7 0 10 -262144 -1
-1;
#X text 258 73 0;
#X obj 283 90 bng 15 250 50 0 empty empty empty 17 7 0 10 -262144 -1
-1;
#X obj 313 90 bng 15 250 50 0 empty empty empty 17 7 0 10 -262144 -1
-1;
#X obj 342 90 bng 15 250 50 0 empty empty empty 17 7 0 10 -262144 -1
-1;
#X obj 369 90 bng 15 250 50 0 empty empty empty 17 7 0 10 -262144 -1
-1;
#X text 286 73 1;
#X text 372 73 4;
#X obj 394 90 bng 15 250 50 0 empty empty empty 17 7 0 10 -262144 -1
-1;
#X text 315 73 2;
#X text 344 73 3;
#X msg 255 125 send /noteon \$1 127;
#X obj 418 90 bng 15 250 50 0 empty empty empty 17 7 0 10 -262144 -1
-1;
#X obj 445 90 bng 15 250 50 0 empty empty empty 17 7 0 10 -262144 -1
-1;
#X text 396 73 5;
#X text 420 72 6;
#X text 445 73 7;
#X msg 255 107 8;
#X msg 283 106 9;
#X msg 313 106 10;
#X msg 342 106 11;
#X msg 369 106 12;
#X msg 394 106 13;
#X msg 418 106 14;
#X msg 445 106 15;
#X text 495 69 0;
#X text 523 69 1;
#X text 609 69 4;
#X text 552 69 2;
#X text 581 69 3;
#X text 633 69 5;
#X text 657 68 6;
#X text 682 69 7;
#X msg 29 558 connect 10.255.255.84 8001;
#X obj 235 551 r oscout;
#X obj 258 143 s oscout;
#X obj 493 138 s oscout;
#X text 46 627 X;
#X obj 28 622 s oscout;
#X obj 16 92 bng 15 250 50 0 empty empty empty 17 7 0 10 -262144 -1
-1;
#X text 19 74 0;
#X obj 44 91 bng 15 250 50 0 empty empty empty 17 7 0 10 -262144 -1
-1;
#X obj 74 91 bng 15 250 50 0 empty empty empty 17 7 0 10 -262144 -1
-1;
#X obj 103 91 bng 15 250 50 0 empty empty empty 17 7 0 10 -262144 -1
-1;
#X obj 130 91 bng 15 250 50 0 empty empty empty 17 7 0 10 -262144 -1
-1;
#X text 47 74 1;
#X text 133 74 4;
#X obj 155 91 bng 15 250 50 0 empty empty empty 17 7 0 10 -262144 -1
-1;
#X text 76 74 2;
#X text 105 74 3;
#X msg 16 126 send /noteon \$1 127;
#X obj 179 91 bng 15 250 50 0 empty empty empty 17 7 0 10 -262144 -1
-1;
#X obj 206 91 bng 15 250 50 0 empty empty empty 17 7 0 10 -262144 -1
-1;
#X text 157 74 5;
#X text 181 73 6;
#X text 206 74 7;
#X obj 19 144 s oscout;
#X msg 15 108 24;
#X msg 44 107 25;
#X msg 74 107 26;
#X msg 103 107 27;
#X msg 130 107 28;
#X msg 155 107 29;
#X msg 179 108 30;
#X msg 206 107 31;
#X text 312 -53 OSC Dac GUI;
#X msg 31 583 connect 127.0.0.1 8003;
#X text 105 62 Laser 0;
#X text 337 59 Laser 1;
#X text 572 54 Laser 2;
#X obj 221 -1 print rcvOSC;
#X obj 306 -26 dumpOSC 8003;
#X obj 312 30 OSCroute;
#X obj 205 210 r rcvOSC;
#X obj 205 247 OSCroute /test /ix /yps;
#X obj 280 281 print ix;
#X obj 361 280 print yps;
#X obj 204 321 OSCroute /bla /bli /blo;
#X obj 204 350 unpack f f f;
#X floatatom 204 377 4 0 0 0 - - -;
#X floatatom 243 377 4 0 0 0 - - -;
#X floatatom 283 377 4 0 0 0 - - -;
#X obj 187 281 print test;
#X obj 360 350 print rejected;
#X text 358 373 last outlet emits all non-matches;
#X connect 0 0 1 0;
#X connect 0 1 2 0;
#X connect 4 0 61 0;
#X connect 6 0 7 0;
#X connect 7 0 18 0;
#X connect 8 0 12 0;
#X connect 9 0 13 0;
#X connect 10 0 14 0;
#X connect 11 0 15 0;
#X connect 12 0 18 0;
#X connect 13 0 18 0;
#X connect 14 0 18 0;
#X connect 15 0 18 0;
#X connect 16 0 17 0;
#X connect 17 0 18 0;
#X connect 18 0 59 0;
#X connect 19 0 21 0;
#X connect 20 0 22 0;
#X connect 21 0 18 0;
#X connect 22 0 18 0;
#X connect 23 0 40 0;
#X connect 25 0 41 0;
#X connect 26 0 42 0;
#X connect 27 0 43 0;
#X connect 28 0 44 0;
#X connect 31 0 45 0;
#X connect 34 0 58 0;
#X connect 35 0 46 0;
#X connect 36 0 47 0;
#X connect 40 0 34 0;
#X connect 41 0 34 0;
#X connect 42 0 34 0;
#X connect 43 0 34 0;
#X connect 44 0 34 0;
#X connect 45 0 34 0;
#X connect 46 0 34 0;
#X connect 47 0 34 0;
#X connect 56 0 61 0;
#X connect 57 0 0 0;
#X connect 62 0 80 0;
#X connect 64 0 81 0;
#X connect 65 0 82 0;
#X connect 66 0 83 0;
#X connect 67 0 84 0;
#X connect 70 0 85 0;
#X connect 73 0 79 0;
#X connect 74 0 86 0;
#X connect 75 0 87 0;
#X connect 80 0 73 0;
#X connect 81 0 73 0;
#X connect 82 0 73 0;
#X connect 83 0 73 0;
#X connect 84 0 73 0;
#X connect 85 0 73 0;
#X connect 86 0 73 0;
#X connect 87 0 73 0;
#X connect 89 0 61 0;
#X connect 94 0 93 0;
#X connect 96 0 97 0;
#X connect 97 0 100 0;
#X connect 97 0 105 0;
#X connect 97 1 98 0;
#X connect 97 1 100 0;
#X connect 97 2 99 0;
#X connect 97 2 100 0;
#X connect 100 0 101 0;
#X connect 100 3 106 0;
#X connect 101 0 102 0;
#X connect 101 1 103 0;
#X connect 101 2 104 0;
