#N canvas 460 137 351 662 10;
#X obj 217 506 sendOSC;
#X floatatom 217 523 5 0 0 0 - - -;
#X floatatom 258 522 5 0 0 0 - - -;
#X text 249 540 bundleDepth;
#X msg 23 47 disconnect;
#X msg 24 28 send /on;
#N canvas 0 22 450 278 (subpatch) 0;
#X coords 0 1 100 -1 100 30 1 0 0;
#X restore 129 -61 graph;
#X obj 215 490 r oscout;
#X obj 22 66 s oscout;
#X obj 13 122 bng 15 250 50 0 empty empty empty 17 7 0 10 -262144 -1
-1;
#X obj 41 121 bng 15 250 50 0 empty empty empty 17 7 0 10 -262144 -1
-1;
#X obj 71 121 bng 15 250 50 0 empty empty empty 17 7 0 10 -262144 -1
-1;
#X obj 100 121 bng 15 250 50 0 empty empty empty 17 7 0 10 -262144
-1 -1;
#X obj 127 121 bng 15 250 50 0 empty empty empty 17 7 0 10 -262144
-1 -1;
#X obj 152 121 bng 15 250 50 0 empty empty empty 17 7 0 10 -262144
-1 -1;
#X obj 176 121 bng 15 250 50 0 empty empty empty 17 7 0 10 -262144
-1 -1;
#X obj 203 121 bng 15 250 50 0 empty empty empty 17 7 0 10 -262144
-1 -1;
#X obj 17 250 s oscout;
#X msg 15 155 send /nozoid/X \$1;
#X text 16 104 1;
#X text 44 104 2;
#X text 72 104 3;
#X text 102 104 4;
#X text 130 104 5;
#X text 155 104 6;
#X text 178 103 7;
#X text 203 104 8;
#X msg 13 138 1;
#X msg 41 137 2;
#X msg 71 137 3;
#X msg 100 137 4;
#X msg 127 137 5;
#X msg 152 137 6;
#X msg 176 137 7;
#X msg 203 137 8;
#X obj 225 121 bng 15 250 50 0 empty empty empty 17 7 0 10 -262144
-1 -1;
#X obj 47 195 bng 15 250 50 0 empty empty empty 17 7 0 10 -262144 -1
-1;
#X obj 77 195 bng 15 250 50 0 empty empty empty 17 7 0 10 -262144 -1
-1;
#X obj 106 195 bng 15 250 50 0 empty empty empty 17 7 0 10 -262144
-1 -1;
#X obj 133 195 bng 15 250 50 0 empty empty empty 17 7 0 10 -262144
-1 -1;
#X obj 158 195 bng 15 250 50 0 empty empty empty 17 7 0 10 -262144
-1 -1;
#X obj 182 195 bng 15 250 50 0 empty empty empty 17 7 0 10 -262144
-1 -1;
#X obj 209 195 bng 15 250 50 0 empty empty empty 17 7 0 10 -262144
-1 -1;
#X msg 20 234 send /nozoid/X \$1;
#X text 226 103 9;
#X text 161 178 17;
#X text 184 177 18;
#X text 209 178 19;
#X msg 223 138 9;
#X msg 158 211 17;
#X msg 182 211 18;
#X msg 209 211 19;
#X obj 20 195 bng 15 250 50 0 empty empty empty 17 7 0 10 -262144 -1
-1;
#X obj 249 121 bng 15 250 50 0 empty empty empty 17 7 0 10 -262144
-1 -1;
#X text 250 102 10;
#X msg 250 137 10;
#X obj 233 192 bng 15 250 50 0 empty empty empty 17 7 0 10 -262144
-1 -1;
#X obj 258 192 bng 15 250 50 0 empty empty empty 17 7 0 10 -262144
-1 -1;
#X obj 274 121 bng 15 250 50 0 empty empty empty 17 7 0 10 -262144
-1 -1;
#X text 275 102 11;
#X msg 275 137 11;
#X obj 284 191 bng 15 250 50 0 empty empty empty 17 7 0 10 -262144
-1 -1;
#X text 22 177 12;
#X text 50 178 13;
#X text 78 178 14;
#X text 108 178 15;
#X text 137 178 16;
#X text 234 176 20;
#X text 259 175 21;
#X text 281 175 22;
#X msg 284 208 22;
#X msg 258 210 21;
#X msg 235 210 20;
#X msg 21 212 12;
#X msg 47 211 13;
#X msg 77 211 14;
#X msg 106 211 15;
#X msg 133 211 16;
#X text 154 -55 Nozsc GUI;
#X obj 18 301 bng 15 250 50 0 empty empty empty 17 7 0 10 -262144 -1
-1;
#X obj 46 300 bng 15 250 50 0 empty empty empty 17 7 0 10 -262144 -1
-1;
#X obj 76 300 bng 15 250 50 0 empty empty empty 17 7 0 10 -262144 -1
-1;
#X obj 105 300 bng 15 250 50 0 empty empty empty 17 7 0 10 -262144
-1 -1;
#X obj 132 300 bng 15 250 50 0 empty empty empty 17 7 0 10 -262144
-1 -1;
#X obj 157 300 bng 15 250 50 0 empty empty empty 17 7 0 10 -262144
-1 -1;
#X obj 181 300 bng 15 250 50 0 empty empty empty 17 7 0 10 -262144
-1 -1;
#X obj 208 300 bng 15 250 50 0 empty empty empty 17 7 0 10 -262144
-1 -1;
#X obj 22 429 s oscout;
#X text 21 283 1;
#X text 49 283 2;
#X text 77 283 3;
#X text 107 283 4;
#X text 135 283 5;
#X text 160 283 6;
#X text 183 282 7;
#X text 208 283 8;
#X msg 18 317 1;
#X msg 46 316 2;
#X msg 76 316 3;
#X msg 105 316 4;
#X msg 132 316 5;
#X msg 157 316 6;
#X msg 181 316 7;
#X msg 208 316 8;
#X obj 227 300 bng 15 250 50 0 empty empty empty 17 7 0 10 -262144
-1 -1;
#X obj 52 374 bng 15 250 50 0 empty empty empty 17 7 0 10 -262144 -1
-1;
#X obj 82 374 bng 15 250 50 0 empty empty empty 17 7 0 10 -262144 -1
-1;
#X obj 111 374 bng 15 250 50 0 empty empty empty 17 7 0 10 -262144
-1 -1;
#X obj 138 374 bng 15 250 50 0 empty empty empty 17 7 0 10 -262144
-1 -1;
#X obj 163 374 bng 15 250 50 0 empty empty empty 17 7 0 10 -262144
-1 -1;
#X obj 187 374 bng 15 250 50 0 empty empty empty 17 7 0 10 -262144
-1 -1;
#X obj 214 374 bng 15 250 50 0 empty empty empty 17 7 0 10 -262144
-1 -1;
#X text 230 282 9;
#X text 166 357 17;
#X text 189 356 18;
#X text 214 357 19;
#X msg 228 317 9;
#X msg 163 390 17;
#X msg 187 390 18;
#X msg 214 390 19;
#X obj 25 374 bng 15 250 50 0 empty empty empty 17 7 0 10 -262144 -1
-1;
#X obj 251 298 bng 15 250 50 0 empty empty empty 17 7 0 10 -262144
-1 -1;
#X text 252 281 10;
#X msg 252 316 10;
#X obj 238 371 bng 15 250 50 0 empty empty empty 17 7 0 10 -262144
-1 -1;
#X obj 263 371 bng 15 250 50 0 empty empty empty 17 7 0 10 -262144
-1 -1;
#X obj 276 297 bng 15 250 50 0 empty empty empty 17 7 0 10 -262144
-1 -1;
#X text 272 280 11;
#X msg 277 316 11;
#X obj 289 370 bng 15 250 50 0 empty empty empty 17 7 0 10 -262144
-1 -1;
#X text 27 356 12;
#X text 55 357 13;
#X text 83 357 14;
#X text 113 357 15;
#X text 142 357 16;
#X text 239 355 20;
#X text 264 354 21;
#X text 286 354 22;
#X msg 290 389 22;
#X msg 263 389 21;
#X msg 240 389 20;
#X msg 26 391 12;
#X msg 52 390 13;
#X msg 82 390 14;
#X msg 111 390 15;
#X msg 138 390 16;
#X msg 20 334 send /nozoid/Y \$1;
#X msg 23 413 send /nozoid/Y \$1;
#X obj 186 64 s oscout;
#X msg 185 -9 send /up;
#X text 40 -26 comment;
#X msg 22 11 connect 127.0.0.1 8003;
#X msg 187 45 send /flashdmx;
#X msg 188 29 send /stop;
#X msg 22 -8 connect 192.168.1.246 8003;
#X msg 184 9 send /down 200;
#X text 123 85 X Curve;
#X text 128 264 Y Curve;
#X connect 0 0 1 0;
#X connect 0 1 2 0;
#X connect 4 0 8 0;
#X connect 5 0 8 0;
#X connect 7 0 0 0;
#X connect 9 0 27 0;
#X connect 10 0 28 0;
#X connect 11 0 29 0;
#X connect 12 0 30 0;
#X connect 13 0 31 0;
#X connect 14 0 32 0;
#X connect 15 0 33 0;
#X connect 16 0 34 0;
#X connect 18 0 17 0;
#X connect 27 0 18 0;
#X connect 28 0 18 0;
#X connect 29 0 18 0;
#X connect 30 0 18 0;
#X connect 31 0 18 0;
#X connect 32 0 18 0;
#X connect 33 0 18 0;
#X connect 34 0 18 0;
#X connect 35 0 48 0;
#X connect 36 0 74 0;
#X connect 37 0 75 0;
#X connect 38 0 76 0;
#X connect 39 0 77 0;
#X connect 40 0 49 0;
#X connect 41 0 50 0;
#X connect 42 0 51 0;
#X connect 43 0 17 0;
#X connect 48 0 18 0;
#X connect 49 0 43 0;
#X connect 50 0 43 0;
#X connect 51 0 43 0;
#X connect 52 0 73 0;
#X connect 53 0 55 0;
#X connect 55 0 18 0;
#X connect 56 0 72 0;
#X connect 57 0 71 0;
#X connect 58 0 60 0;
#X connect 60 0 18 0;
#X connect 61 0 70 0;
#X connect 70 0 43 0;
#X connect 71 0 43 0;
#X connect 72 0 43 0;
#X connect 73 0 43 0;
#X connect 74 0 43 0;
#X connect 75 0 43 0;
#X connect 76 0 43 0;
#X connect 77 0 43 0;
#X connect 79 0 96 0;
#X connect 80 0 97 0;
#X connect 81 0 98 0;
#X connect 82 0 99 0;
#X connect 83 0 100 0;
#X connect 84 0 101 0;
#X connect 85 0 102 0;
#X connect 86 0 103 0;
#X connect 96 0 146 0;
#X connect 97 0 146 0;
#X connect 98 0 146 0;
#X connect 99 0 146 0;
#X connect 100 0 146 0;
#X connect 101 0 146 0;
#X connect 102 0 146 0;
#X connect 103 0 146 0;
#X connect 104 0 116 0;
#X connect 105 0 142 0;
#X connect 106 0 143 0;
#X connect 107 0 144 0;
#X connect 108 0 145 0;
#X connect 109 0 117 0;
#X connect 110 0 118 0;
#X connect 111 0 119 0;
#X connect 116 0 146 0;
#X connect 117 0 147 0;
#X connect 118 0 147 0;
#X connect 119 0 147 0;
#X connect 120 0 141 0;
#X connect 121 0 123 0;
#X connect 123 0 146 0;
#X connect 124 0 140 0;
#X connect 125 0 139 0;
#X connect 126 0 128 0;
#X connect 128 0 146 0;
#X connect 129 0 138 0;
#X connect 139 0 147 0;
#X connect 140 0 147 0;
#X connect 141 0 147 0;
#X connect 142 0 147 0;
#X connect 143 0 147 0;
#X connect 144 0 147 0;
#X connect 145 0 147 0;
#X connect 146 0 87 0;
#X connect 147 0 87 0;
#X connect 149 0 148 0;
#X connect 151 0 8 0;
#X connect 152 0 148 0;
#X connect 153 0 148 0;
#X connect 154 0 8 0;
#X connect 155 0 148 0;
